# xmcd
#
# Track frame offsets: 
#        150
#        22625
#        40662
#        61687
#        81487
#        100925
#        120037
#        142662
#        164162
#        184100
#
# Disc length: 2760 seconds
#
# Revision: 0
# Processed by: cddbd v1.5.2PL0 Copyright (c) Steve Scherf et al.
# Submitted via: ExactAudioCopy v0.99pb5
#
DISCID=6e0ac60a
DTITLE=Il cantiere - Gatulen
DYEAR=1994
DGENRE=Folk/Rock
TTITLE0=Si dla matèna
TTITLE1=Aqua vigliaca
TTITLE2=I remember Gatulen
TTITLE3=La pareva una festa
TTITLE4=Un panìn a la matèna
TTITLE5=Cisena on my mind
TTITLE6=You are belésma
TTITLE7=Bianco rosso e blues
TTITLE8=La strèda pr'e' mèr
TTITLE9=Gusto e Cesira
EXTD=
EXTT0=
EXTT1=
EXTT2=
EXTT3=
EXTT4=
EXTT5=
EXTT6=
EXTT7=
EXTT8=
EXTT9=
PLAYORDER=
